<?xml version="1.0" standalone="no"?>
<!DOCTYPE svg PUBLIC "-//W3C//DTD SVG 20010904//EN"
 "http://www.w3.org/TR/2001/REC-SVG-20010904/DTD/svg10.dtd">
<svg version="1.0" xmlns="http://www.w3.org/2000/svg"
 width="225.000000pt" height="225.000000pt" viewBox="0 0 225.000000 225.000000"
 preserveAspectRatio="xMidYMid meet">

<g transform="translate(0.000000,225.000000) scale(0.100000,-0.100000)"
fill="#000000" stroke="none">
<path d="M70 1125 l0 -1055 245 0 245 0 0 425 0 425 45 0 c41 0 58 -11 36 -24
-8 -5 -5 -126 4 -172 4 -17 25 -26 130 -54 l125 -32 11 -37 c9 -33 6 -45 -35
-139 -25 -56 -46 -110 -46 -120 0 -26 126 -133 148 -125 9 4 59 31 110 61 86
51 97 54 130 46 35 -9 38 -13 80 -119 24 -60 49 -116 56 -123 10 -10 33 -11
102 -5 l88 8 36 124 c32 114 38 125 65 138 29 14 36 12 145 -35 82 -36 119
-48 131 -41 9 5 40 36 68 70 l51 60 -16 32 c-9 18 -37 67 -62 111 -40 70 -44
82 -36 114 9 34 13 37 127 80 91 35 119 50 122 66 3 12 2 57 -2 100 l-8 79
-70 19 c-174 47 -175 47 -191 81 -15 31 -14 35 16 102 18 39 40 92 51 118 l19
48 -62 59 c-35 33 -71 60 -81 60 -9 0 -64 -27 -122 -60 -101 -57 -106 -59
-136 -46 -28 12 -37 27 -75 121 -24 59 -48 112 -53 119 -13 16 -170 9 -188 -8
-6 -6 -25 -62 -42 -125 -30 -114 -37 -126 -77 -137 -22 -6 -163 49 -175 68 -3
5 -10 10 -15 9 -5 0 -19 3 -32 6 -13 3 -34 0 -46 -6 -15 -8 -70 -11 -171 -9
l-150 3 -3 143 -3 142 350 0 350 0 3 245 3 245 -597 0 -598 0 0 -1055z m1353
398 c3 -10 23 -60 44 -112 l38 -93 63 -21 c62 -21 64 -21 95 -3 18 10 50 28
72 40 22 12 53 30 68 40 24 16 32 17 51 6 40 -21 51 -53 33 -92 -8 -18 -29
-66 -46 -106 l-32 -72 33 -62 33 -61 101 -27 c55 -15 106 -30 112 -34 16 -10
15 -81 -1 -94 -7 -6 -57 -28 -111 -49 l-99 -38 -19 -65 -19 -65 56 -97 c31
-53 55 -105 53 -114 -2 -9 -15 -26 -30 -37 l-26 -20 -109 48 -109 47 -61 -30
-60 -31 -28 -103 c-16 -57 -33 -109 -38 -116 -12 -16 -82 -16 -94 1 -5 6 -22
48 -38 92 -39 114 -44 120 -117 140 l-63 17 -75 -44 c-136 -79 -126 -76 -161
-41 l-31 30 47 107 c43 100 46 110 34 139 -35 87 -38 90 -150 122 -57 17 -110
34 -116 38 -7 5 -13 26 -13 48 0 38 2 40 58 66 39 18 82 28 137 32 l80 6 5
197 5 196 69 -29 70 -30 62 27 63 26 32 119 33 119 47 0 c36 0 48 -4 52 -17z"/>
<path d="M1674 1208 c-4 -7 -3 -8 4 -4 6 3 16 -2 21 -13 16 -29 13 -41 -9 -41
-13 0 -18 5 -14 15 8 19 -3 19 -23 -1 -14 -14 -13 -19 19 -52 20 -20 51 -68
69 -107 31 -63 34 -78 34 -155 -1 -119 -28 -185 -110 -266 -79 -77 -153 -108
-265 -108 -64 0 -86 5 -141 31 -156 74 -241 214 -227 377 3 32 1 51 -3 44 -6
-9 -9 -7 -9 7 -1 18 -2 17 -15 -5 -8 -14 -14 -32 -15 -40 0 -8 -9 -21 -21 -28
-14 -9 -19 -10 -14 -2 8 14 -5 10 -99 -25 l-59 -22 34 -10 c19 -6 63 -19 98
-29 l64 -18 39 -82 c21 -45 38 -90 38 -99 0 -9 -16 -53 -35 -97 -20 -44 -34
-82 -33 -83 2 -2 37 17 78 41 41 23 84 43 95 44 32 1 179 -53 190 -70 5 -8 24
-53 41 -100 l32 -85 17 60 c39 140 38 138 96 170 110 62 110 62 202 25 45 -18
88 -38 95 -43 24 -18 12 12 -33 86 -25 41 -45 83 -44 93 0 11 13 55 27 99 l27
80 98 39 c54 21 96 41 93 43 -2 2 -46 15 -97 27 l-94 23 -47 89 c-31 61 -45
96 -41 112 8 32 -24 91 -49 92 -4 0 -10 -5 -14 -12z"/>
<path d="M1750 1190 c0 -19 3 -21 12 -12 9 9 9 15 0 24 -9 9 -12 7 -12 -12z"/>
<path d="M1353 1140 c-191 -28 -305 -249 -219 -423 33 -69 75 -110 146 -145
119 -58 278 -21 362 85 119 150 67 375 -105 457 -62 29 -114 37 -184 26z m154
-91 c89 -43 144 -151 123 -244 -13 -60 -31 -93 -67 -127 -92 -87 -252 -78
-332 19 -60 73 -67 186 -15 270 58 93 191 131 291 82z"/>
<path d="M1027 976 c-6 -15 1 -26 15 -26 4 0 8 9 8 20 0 23 -15 27 -23 6z"/>
</g>
</svg>
